<svg xmlns="http://www.w3.org/2000/svg" viewBox="0 0 128 128" fill="none">
  <defs>
    <linearGradient id="snakeGradient" x1="0%" y1="0%" x2="100%" y2="100%">
      <stop offset="0%" style="stop-color:#ec4899"/>
      <stop offset="100%" style="stop-color:#8b5cf6"/>
    </linearGradient>
    <linearGradient id="eyeGradient" x1="0%" y1="0%" x2="100%" y2="100%">
      <stop offset="0%" style="stop-color:#fbbf24"/>
      <stop offset="100%" style="stop-color:#f59e0b"/>
    </linearGradient>
  </defs>
  
  <!-- Background circle -->
  <circle cx="64" cy="64" r="60" fill="#1f2937"/>
  
  <!-- Snake body forming Q shape -->
  <!-- Main Q curve -->
  <path 
    d="M 64 20 
       C 30 20, 16 45, 16 64 
       C 16 83, 30 108, 64 108 
       C 85 108, 100 95, 105 78"
    stroke="url(#snakeGradient)" 
    stroke-width="14" 
    stroke-linecap="round"
    fill="none"
  />
  
  <!-- Q tail (snake tail) -->
  <path 
    d="M 95 85 
       C 100 90, 108 98, 115 108
       L 120 115"
    stroke="url(#snakeGradient)" 
    stroke-width="12" 
    stroke-linecap="round"
    fill="none"
  />
  
  <!-- Snake head with detail -->
  <ellipse cx="64" cy="25" rx="18" ry="12" fill="url(#snakeGradient)"/>
  
  <!-- Snake eye -->
  <circle cx="58" cy="24" r="4" fill="url(#eyeGradient)"/>
  <circle cx="56" cy="23" r="1.5" fill="#1f2937"/>
  
  <!-- Snake tongue (forked) -->
  <path 
    d="M 75 25 
       L 85 22 
       M 85 22 L 90 18
       M 85 22 L 90 26"
    stroke="#ef4444" 
    stroke-width="2" 
    stroke-linecap="round"
  />
  
  <!-- Snake scale pattern (subtle) -->
  <path 
    d="M 22 55 
       C 28 52, 32 58, 25 62"
    stroke="#ec489950" 
    stroke-width="2" 
    fill="none"
  />
  <path 
    d="M 25 75 
       C 31 72, 35 78, 28 82"
    stroke="#ec489950" 
    stroke-width="2" 
    fill="none"
  />
  <path 
    d="M 35 95 
       C 41 92, 45 98, 38 102"
    stroke="#ec489950" 
    stroke-width="2" 
    fill="none"
  />
</svg>

